<svg xmlns="http://www.w3.org/2000/svg" viewBox="0 0 900 500" width="900" height="500">
  <defs>
    <linearGradient id="bgSN1" x1="0%" y1="0%" x2="100%" y2="100%">
      <stop offset="0%" style="stop-color:#0f0a1a"/>
      <stop offset="100%" style="stop-color:#1a0e2e"/>
    </linearGradient>
  </defs>

  <rect width="900" height="500" fill="url(#bgSN1)" rx="16"/>

  <text x="450" y="38" text-anchor="middle" fill="#e2e8f0" font-family="system-ui" font-size="20" font-weight="700">BetAway — MVVM + Service Layer Architecture</text>
  <text x="450" y="58" text-anchor="middle" fill="#64748b" font-family="system-ui" font-size="12">Swift 6 strict concurrency, @Observable ViewModels, SwiftData persistence</text>

  <!-- Views -->
  <rect x="40" y="85" width="200" height="260" rx="12" fill="#9333ea" opacity="0.08" stroke="#9333ea" stroke-width="1.5"/>
  <text x="140" y="110" text-anchor="middle" fill="#c084fc" font-family="system-ui" font-size="15" font-weight="700">Views</text>
  <text x="140" y="128" text-anchor="middle" fill="#64748b" font-family="system-ui" font-size="9">SwiftUI — display + @Query</text>
  <rect x="55" y="140" width="170" height="24" rx="5" fill="#9333ea" opacity="0.15"/>
  <text x="140" y="157" text-anchor="middle" fill="#e2e8f0" font-family="system-ui" font-size="10">DashboardView</text>
  <rect x="55" y="170" width="170" height="24" rx="5" fill="#9333ea" opacity="0.15"/>
  <text x="140" y="187" text-anchor="middle" fill="#e2e8f0" font-family="system-ui" font-size="10">PledgeContainerView</text>
  <rect x="55" y="200" width="170" height="24" rx="5" fill="#9333ea" opacity="0.15"/>
  <text x="140" y="217" text-anchor="middle" fill="#e2e8f0" font-family="system-ui" font-size="10">JournalView</text>
  <rect x="55" y="230" width="170" height="24" rx="5" fill="#9333ea" opacity="0.15"/>
  <text x="140" y="247" text-anchor="middle" fill="#e2e8f0" font-family="system-ui" font-size="10">ProgressAnalyticsView</text>
  <rect x="55" y="260" width="170" height="24" rx="5" fill="#9333ea" opacity="0.15"/>
  <text x="140" y="277" text-anchor="middle" fill="#e2e8f0" font-family="system-ui" font-size="10">SettingsView</text>
  <rect x="55" y="290" width="170" height="24" rx="5" fill="#9333ea" opacity="0.15"/>
  <text x="140" y="307" text-anchor="middle" fill="#e2e8f0" font-family="system-ui" font-size="10">UrgeContainerView</text>

  <!-- Arrow V→VM -->
  <line x1="240" y1="215" x2="275" y2="215" stroke="#c084fc" stroke-width="2" opacity="0.5"/>
  <polygon points="273,210 283,215 273,220" fill="#c084fc" opacity="0.5"/>
  <text x="260" y="205" text-anchor="middle" fill="#94a3b8" font-family="system-ui" font-size="8">observes</text>

  <!-- ViewModels -->
  <rect x="285" y="85" width="200" height="260" rx="12" fill="#6366f1" opacity="0.08" stroke="#6366f1" stroke-width="1.5"/>
  <text x="385" y="110" text-anchor="middle" fill="#818cf8" font-family="system-ui" font-size="15" font-weight="700">ViewModels</text>
  <text x="385" y="128" text-anchor="middle" fill="#64748b" font-family="system-ui" font-size="9">@Observable — business logic</text>
  <rect x="300" y="140" width="170" height="24" rx="5" fill="#6366f1" opacity="0.15"/>
  <text x="385" y="157" text-anchor="middle" fill="#e2e8f0" font-family="system-ui" font-size="10">DashboardViewModel</text>
  <rect x="300" y="170" width="170" height="24" rx="5" fill="#6366f1" opacity="0.15"/>
  <text x="385" y="187" text-anchor="middle" fill="#e2e8f0" font-family="system-ui" font-size="10">PledgeViewModel</text>
  <rect x="300" y="200" width="170" height="24" rx="5" fill="#6366f1" opacity="0.15"/>
  <text x="385" y="217" text-anchor="middle" fill="#e2e8f0" font-family="system-ui" font-size="10">UrgeViewModel</text>
  <rect x="300" y="230" width="170" height="24" rx="5" fill="#6366f1" opacity="0.15"/>
  <text x="385" y="247" text-anchor="middle" fill="#e2e8f0" font-family="system-ui" font-size="10">ProgressViewModel</text>
  <rect x="300" y="260" width="170" height="24" rx="5" fill="#6366f1" opacity="0.15"/>
  <text x="385" y="277" text-anchor="middle" fill="#e2e8f0" font-family="system-ui" font-size="10">SettingsViewModel</text>
  <rect x="300" y="290" width="170" height="24" rx="5" fill="#6366f1" opacity="0.15"/>
  <text x="385" y="307" text-anchor="middle" fill="#e2e8f0" font-family="system-ui" font-size="10">OnboardingViewModel</text>

  <!-- Arrow VM→Managers -->
  <line x1="485" y1="215" x2="520" y2="215" stroke="#818cf8" stroke-width="2" opacity="0.5"/>
  <polygon points="518,210 528,215 518,220" fill="#818cf8" opacity="0.5"/>
  <text x="504" y="205" text-anchor="middle" fill="#94a3b8" font-family="system-ui" font-size="8">uses</text>

  <!-- Managers -->
  <rect x="530" y="85" width="170" height="180" rx="12" fill="#06b6d4" opacity="0.08" stroke="#06b6d4" stroke-width="1.5"/>
  <text x="615" y="110" text-anchor="middle" fill="#67e8f9" font-family="system-ui" font-size="15" font-weight="700">Managers</text>
  <text x="615" y="128" text-anchor="middle" fill="#64748b" font-family="system-ui" font-size="9">System services</text>
  <rect x="542" y="140" width="146" height="24" rx="5" fill="#06b6d4" opacity="0.12"/>
  <text x="615" y="157" text-anchor="middle" fill="#e2e8f0" font-family="system-ui" font-size="10">NotificationManager</text>
  <rect x="542" y="170" width="146" height="24" rx="5" fill="#06b6d4" opacity="0.12"/>
  <text x="615" y="187" text-anchor="middle" fill="#e2e8f0" font-family="system-ui" font-size="10">HapticManager</text>
  <rect x="542" y="200" width="146" height="24" rx="5" fill="#06b6d4" opacity="0.12"/>
  <text x="615" y="217" text-anchor="middle" fill="#e2e8f0" font-family="system-ui" font-size="10">SharedDataManager</text>
  <rect x="542" y="230" width="146" height="24" rx="5" fill="#06b6d4" opacity="0.12"/>
  <text x="615" y="247" text-anchor="middle" fill="#e2e8f0" font-family="system-ui" font-size="10">LanguageManager</text>

  <!-- SwiftData -->
  <rect x="720" y="85" width="150" height="260" rx="12" fill="#22c55e" opacity="0.08" stroke="#22c55e" stroke-width="1.5"/>
  <text x="795" y="110" text-anchor="middle" fill="#86efac" font-family="system-ui" font-size="15" font-weight="700">SwiftData</text>
  <text x="795" y="128" text-anchor="middle" fill="#64748b" font-family="system-ui" font-size="9">ModelContainer</text>
  <rect x="732" y="140" width="126" height="24" rx="5" fill="#22c55e" opacity="0.12"/>
  <text x="795" y="157" text-anchor="middle" fill="#e2e8f0" font-family="system-ui" font-size="10">UserProfile</text>
  <rect x="732" y="170" width="126" height="24" rx="5" fill="#22c55e" opacity="0.12"/>
  <text x="795" y="187" text-anchor="middle" fill="#e2e8f0" font-family="system-ui" font-size="10">DailyCheckin</text>
  <rect x="732" y="200" width="126" height="24" rx="5" fill="#22c55e" opacity="0.12"/>
  <text x="795" y="217" text-anchor="middle" fill="#e2e8f0" font-family="system-ui" font-size="10">UrgeLog</text>
  <rect x="732" y="230" width="126" height="24" rx="5" fill="#22c55e" opacity="0.12"/>
  <text x="795" y="247" text-anchor="middle" fill="#e2e8f0" font-family="system-ui" font-size="10">JournalEntry</text>

  <!-- Arrow VM→SwiftData -->
  <path d="M 485 250 Q 530 290 720 250" stroke="#22c55e" stroke-width="1.5" fill="none" opacity="0.3" stroke-dasharray="4 3"/>
  <text x="600" y="295" text-anchor="middle" fill="#86efac" font-family="system-ui" font-size="8">modelContext writes</text>

  <!-- Arrow View→SwiftData -->
  <path d="M 140 345 Q 450 410 795 345" stroke="#22c55e" stroke-width="1.5" fill="none" opacity="0.3" stroke-dasharray="4 3"/>
  <text x="450" y="405" text-anchor="middle" fill="#86efac" font-family="system-ui" font-size="9">@Query reads — reactive, auto-updating</text>

  <!-- Navigation -->
  <rect x="40" y="375" width="660" height="55" rx="10" fill="#f97316" opacity="0.06" stroke="#f97316" stroke-width="1"/>
  <text x="370" y="400" text-anchor="middle" fill="#fdba74" font-family="system-ui" font-size="13" font-weight="700">AppRouter (@Observable)</text>
  <text x="370" y="418" text-anchor="middle" fill="#94a3b8" font-family="system-ui" font-size="10">Tab selection, NavigationPath, onboarding state, biometric lock — owns all navigation</text>

  <!-- Folder structure -->
  <rect x="40" y="445" width="820" height="40" rx="8" fill="#64748b" opacity="0.08"/>
  <text x="450" y="470" text-anchor="middle" fill="#94a3b8" font-family="system-ui" font-size="11">App/ | Core/Theme/ | Models/ | Navigation/ | ViewModels/ | Views/ | Managers/</text>
</svg>