<svg xmlns="http://www.w3.org/2000/svg" viewBox="0 0 900 520" width="900" height="520">
  <defs>
    <linearGradient id="bgG" x1="0%" y1="0%" x2="100%" y2="100%">
      <stop offset="0%" style="stop-color:#0f0a1a"/>
      <stop offset="100%" style="stop-color:#1a0e2e"/>
    </linearGradient>
    <linearGradient id="tier1" x1="0%" y1="0%" x2="100%" y2="0%">
      <stop offset="0%" style="stop-color:#06b6d4"/>
      <stop offset="100%" style="stop-color:#22d3ee"/>
    </linearGradient>
    <linearGradient id="tier2" x1="0%" y1="0%" x2="100%" y2="0%">
      <stop offset="0%" style="stop-color:#8b5cf6"/>
      <stop offset="100%" style="stop-color:#a78bfa"/>
    </linearGradient>
    <linearGradient id="tier3" x1="0%" y1="0%" x2="100%" y2="0%">
      <stop offset="0%" style="stop-color:#9333ea"/>
      <stop offset="100%" style="stop-color:#c084fc"/>
    </linearGradient>
    <filter id="gl">
      <feGaussianBlur stdDeviation="3" result="b"/>
      <feMerge><feMergeNode in="b"/><feMergeNode in="SourceGraphic"/></feMerge>
    </filter>
  </defs>

  <rect width="900" height="520" fill="url(#bgG)" rx="16"/>

  <!-- Title -->
  <text x="450" y="38" text-anchor="middle" fill="#e2e8f0" font-family="system-ui" font-size="20" font-weight="700">ApplyIQ's 3-Tier ATS Optimization</text>
  <text x="450" y="58" text-anchor="middle" fill="#64748b" font-family="system-ui" font-size="12">Choose your optimization level based on how competitive the role is</text>

  <!-- Tier 1: Realistic -->
  <g transform="translate(40, 85)">
    <rect x="0" y="0" width="260" height="380" rx="16" fill="#0f2a3a" opacity="0.6" stroke="#06b6d4" stroke-width="1.5"/>

    <!-- Header -->
    <rect x="0" y="0" width="260" height="56" rx="16" fill="#06b6d4" opacity="0.15"/>
    <rect x="0" y="40" width="260" height="16" fill="#06b6d4" opacity="0.15"/>
    <text x="130" y="24" text-anchor="middle" fill="#22d3ee" font-family="system-ui" font-size="11" font-weight="600">TIER 1</text>
    <text x="130" y="44" text-anchor="middle" fill="#e2e8f0" font-family="system-ui" font-size="16" font-weight="800">Realistic Match</text>

    <!-- Score badge -->
    <rect x="70" y="70" width="120" height="44" rx="10" fill="#06b6d4" opacity="0.15" stroke="#06b6d4" stroke-width="1"/>
    <text x="130" y="90" text-anchor="middle" fill="#22d3ee" font-family="monospace" font-size="22" font-weight="800" filter="url(#gl)">60-75%</text>
    <text x="130" y="106" text-anchor="middle" fill="#67e8f9" font-family="system-ui" font-size="9">ATS MATCH SCORE</text>

    <!-- What it does -->
    <text x="20" y="140" fill="#94a3b8" font-family="system-ui" font-size="11" font-weight="600">What it does:</text>

    <circle cx="28" cy="160" r="3" fill="#06b6d4"/>
    <text x="38" y="164" fill="#cbd5e1" font-family="system-ui" font-size="11">ATS-compatible reformatting</text>

    <circle cx="28" cy="182" r="3" fill="#06b6d4"/>
    <text x="38" y="186" fill="#cbd5e1" font-family="system-ui" font-size="11">Add missing keywords naturally</text>

    <circle cx="28" cy="204" r="3" fill="#06b6d4"/>
    <text x="38" y="208" fill="#cbd5e1" font-family="system-ui" font-size="11">Fix section headers</text>

    <circle cx="28" cy="226" r="3" fill="#06b6d4"/>
    <text x="38" y="230" fill="#cbd5e1" font-family="system-ui" font-size="11">Preserve original voice</text>

    <!-- Best for -->
    <line x1="20" y1="252" x2="240" y2="252" stroke="#1e3a4a" stroke-width="1"/>
    <text x="20" y="275" fill="#94a3b8" font-family="system-ui" font-size="11" font-weight="600">Best for:</text>
    <text x="20" y="295" fill="#67e8f9" font-family="system-ui" font-size="11">Strong natural fit roles</text>
    <text x="20" y="312" fill="#67e8f9" font-family="system-ui" font-size="11">where you just need the</text>
    <text x="20" y="329" fill="#67e8f9" font-family="system-ui" font-size="11">ATS to not block you.</text>

    <!-- Intensity meter -->
    <text x="20" y="362" fill="#94a3b8" font-family="system-ui" font-size="10">Optimization level:</text>
    <rect x="140" y="352" width="100" height="8" rx="4" fill="#1a1a2e"/>
    <rect x="140" y="352" width="30" height="8" rx="4" fill="url(#tier1)"/>
  </g>

  <!-- Tier 2: Enhanced -->
  <g transform="translate(320, 85)">
    <rect x="0" y="0" width="260" height="380" rx="16" fill="#1a1030" opacity="0.7" stroke="#8b5cf6" stroke-width="2"/>

    <!-- Popular badge -->
    <rect x="75" y="-12" width="110" height="24" rx="12" fill="#8b5cf6" opacity="0.9"/>
    <text x="130" y="4" text-anchor="middle" fill="#ffffff" font-family="system-ui" font-size="10" font-weight="700">RECOMMENDED</text>

    <!-- Header -->
    <rect x="0" y="0" width="260" height="56" rx="16" fill="#8b5cf6" opacity="0.15"/>
    <rect x="0" y="40" width="260" height="16" fill="#8b5cf6" opacity="0.15"/>
    <text x="130" y="24" text-anchor="middle" fill="#a78bfa" font-family="system-ui" font-size="11" font-weight="600">TIER 2</text>
    <text x="130" y="44" text-anchor="middle" fill="#e2e8f0" font-family="system-ui" font-size="16" font-weight="800">Enhanced Match</text>

    <!-- Score badge -->
    <rect x="70" y="70" width="120" height="44" rx="10" fill="#8b5cf6" opacity="0.15" stroke="#8b5cf6" stroke-width="1"/>
    <text x="130" y="90" text-anchor="middle" fill="#a78bfa" font-family="monospace" font-size="22" font-weight="800" filter="url(#gl)">75-90%</text>
    <text x="130" y="106" text-anchor="middle" fill="#c4b5fd" font-family="system-ui" font-size="9">ATS MATCH SCORE</text>

    <!-- What it does -->
    <text x="20" y="140" fill="#94a3b8" font-family="system-ui" font-size="11" font-weight="600">What it does:</text>

    <circle cx="28" cy="160" r="3" fill="#8b5cf6"/>
    <text x="38" y="164" fill="#cbd5e1" font-family="system-ui" font-size="11">Everything in Tier 1, plus:</text>

    <circle cx="28" cy="182" r="3" fill="#8b5cf6"/>
    <text x="38" y="186" fill="#cbd5e1" font-family="system-ui" font-size="11">Restructure descriptions</text>

    <circle cx="28" cy="204" r="3" fill="#8b5cf6"/>
    <text x="38" y="208" fill="#cbd5e1" font-family="system-ui" font-size="11">Optimize keyword density</text>

    <circle cx="28" cy="226" r="3" fill="#8b5cf6"/>
    <text x="38" y="230" fill="#cbd5e1" font-family="system-ui" font-size="11">Strengthen achievements</text>

    <!-- Best for -->
    <line x1="20" y1="252" x2="240" y2="252" stroke="#2d1f4e" stroke-width="1"/>
    <text x="20" y="275" fill="#94a3b8" font-family="system-ui" font-size="11" font-weight="600">Best for:</text>
    <text x="20" y="295" fill="#c4b5fd" font-family="system-ui" font-size="11">Roles where you meet most</text>
    <text x="20" y="312" fill="#c4b5fd" font-family="system-ui" font-size="11">requirements but need to</text>
    <text x="20" y="329" fill="#c4b5fd" font-family="system-ui" font-size="11">highlight your experience better.</text>

    <!-- Intensity meter -->
    <text x="20" y="362" fill="#94a3b8" font-family="system-ui" font-size="10">Optimization level:</text>
    <rect x="140" y="352" width="100" height="8" rx="4" fill="#1a1a2e"/>
    <rect x="140" y="352" width="65" height="8" rx="4" fill="url(#tier2)"/>
  </g>

  <!-- Tier 3: Maximum -->
  <g transform="translate(600, 85)">
    <rect x="0" y="0" width="260" height="380" rx="16" fill="#1a0830" opacity="0.7" stroke="#9333ea" stroke-width="1.5"/>

    <!-- Header -->
    <rect x="0" y="0" width="260" height="56" rx="16" fill="#9333ea" opacity="0.15"/>
    <rect x="0" y="40" width="260" height="16" fill="#9333ea" opacity="0.15"/>
    <text x="130" y="24" text-anchor="middle" fill="#c084fc" font-family="system-ui" font-size="11" font-weight="600">TIER 3</text>
    <text x="130" y="44" text-anchor="middle" fill="#e2e8f0" font-family="system-ui" font-size="16" font-weight="800">Maximum Match</text>

    <!-- Score badge -->
    <rect x="70" y="70" width="120" height="44" rx="10" fill="#9333ea" opacity="0.15" stroke="#9333ea" stroke-width="1"/>
    <text x="130" y="90" text-anchor="middle" fill="#c084fc" font-family="monospace" font-size="22" font-weight="800" filter="url(#gl)">90-100%</text>
    <text x="130" y="106" text-anchor="middle" fill="#d8b4fe" font-family="system-ui" font-size="9">ATS MATCH SCORE</text>

    <!-- What it does -->
    <text x="20" y="140" fill="#94a3b8" font-family="system-ui" font-size="11" font-weight="600">What it does:</text>

    <circle cx="28" cy="160" r="3" fill="#9333ea"/>
    <text x="38" y="164" fill="#cbd5e1" font-family="system-ui" font-size="11">Everything in Tier 2, plus:</text>

    <circle cx="28" cy="182" r="3" fill="#9333ea"/>
    <text x="38" y="186" fill="#cbd5e1" font-family="system-ui" font-size="11">Full language rewrite</text>

    <circle cx="28" cy="204" r="3" fill="#9333ea"/>
    <text x="38" y="208" fill="#cbd5e1" font-family="system-ui" font-size="11">Mirror exact job terms</text>

    <circle cx="28" cy="226" r="3" fill="#9333ea"/>
    <text x="38" y="230" fill="#cbd5e1" font-family="system-ui" font-size="11">Optimize section ordering</text>

    <!-- Best for -->
    <line x1="20" y1="252" x2="240" y2="252" stroke="#2d1040" stroke-width="1"/>
    <text x="20" y="275" fill="#94a3b8" font-family="system-ui" font-size="11" font-weight="600">Best for:</text>
    <text x="20" y="295" fill="#d8b4fe" font-family="system-ui" font-size="11">Dream-job applications</text>
    <text x="20" y="312" fill="#d8b4fe" font-family="system-ui" font-size="11">where you want every</text>
    <text x="20" y="329" fill="#d8b4fe" font-family="system-ui" font-size="11">possible advantage.</text>

    <!-- Intensity meter -->
    <text x="20" y="362" fill="#94a3b8" font-family="system-ui" font-size="10">Optimization level:</text>
    <rect x="140" y="352" width="100" height="8" rx="4" fill="#1a1a2e"/>
    <rect x="140" y="352" width="100" height="8" rx="4" fill="url(#tier3)"/>
  </g>

  <!-- Bottom note -->
  <rect x="200" y="478" width="500" height="28" rx="8" fill="#22c55e" opacity="0.08" stroke="#22c55e" stroke-width="1"/>
  <text x="450" y="496" text-anchor="middle" fill="#4ade80" font-family="system-ui" font-size="11" font-weight="600">All tiers keep your CV truthful — ApplyIQ never fabricates experience</text>
</svg>
