<svg xmlns="http://www.w3.org/2000/svg" viewBox="0 0 800 430" width="800" height="430">
  <defs>
    <linearGradient id="bgGrad" x1="0%" y1="0%" x2="100%" y2="100%">
      <stop offset="0%" style="stop-color:#0f172a;stop-opacity:1" />
      <stop offset="100%" style="stop-color:#1e1b4b;stop-opacity:1" />
    </linearGradient>
    <filter id="shadow">
      <feDropShadow dx="0" dy="2" stdDeviation="4" flood-color="#000" flood-opacity="0.3"/>
    </filter>
  </defs>

  <rect width="800" height="430" rx="16" fill="url(#bgGrad)"/>

  <!-- Title -->
  <text x="400" y="40" text-anchor="middle" font-family="system-ui, -apple-system, sans-serif" font-size="19" font-weight="bold" fill="#f8fafc">The Homeowner vs. Contractor Trust Gap</text>
  <line x1="240" y1="52" x2="560" y2="52" stroke="#ef4444" stroke-width="2" opacity="0.6"/>

  <!-- Left side: What homeowners want -->
  <g transform="translate(30, 75)" font-family="system-ui, -apple-system, sans-serif">
    <rect x="0" y="0" width="360" height="45" rx="10" fill="#1e293b" stroke="#3b82f6" stroke-width="1"/>
    <text x="180" y="18" text-anchor="middle" font-size="13" font-weight="bold" fill="#3b82f6">What Homeowners Want</text>
    <text x="180" y="35" text-anchor="middle" font-size="12" fill="#94a3b8">Transparent pricing before committing</text>

    <rect x="0" y="58" width="360" height="38" rx="8" fill="#1e293b" opacity="0.8"/>
    <text x="15" y="82" font-size="13" fill="#e2e8f0">78% want pricing on contractor websites</text>
    <rect x="0" y="58" width="280" height="38" rx="8" fill="#3b82f6" opacity="0.15"/>

    <rect x="0" y="106" width="360" height="38" rx="8" fill="#1e293b" opacity="0.8"/>
    <text x="15" y="130" font-size="13" fill="#e2e8f0">63% research costs before calling anyone</text>
    <rect x="0" y="106" width="226" height="38" rx="8" fill="#3b82f6" opacity="0.15"/>

    <rect x="0" y="154" width="360" height="38" rx="8" fill="#1e293b" opacity="0.8"/>
    <text x="15" y="178" font-size="13" fill="#e2e8f0">89% compare at least 3 quotes</text>
    <rect x="0" y="154" width="320" height="38" rx="8" fill="#3b82f6" opacity="0.15"/>
  </g>

  <!-- VS divider -->
  <g transform="translate(390, 130)">
    <line x1="10" y1="0" x2="10" y2="140" stroke="#475569" stroke-width="1" stroke-dasharray="6 4"/>
    <circle cx="10" cy="70" r="18" fill="#1e293b" stroke="#475569" stroke-width="1"/>
    <text x="10" y="75" text-anchor="middle" font-family="system-ui, -apple-system, sans-serif" font-size="12" font-weight="bold" fill="#94a3b8">VS</text>
  </g>

  <!-- Right side: What contractors do -->
  <g transform="translate(420, 75)" font-family="system-ui, -apple-system, sans-serif">
    <rect x="0" y="0" width="350" height="45" rx="10" fill="#1e293b" stroke="#ef4444" stroke-width="1"/>
    <text x="175" y="18" text-anchor="middle" font-size="13" font-weight="bold" fill="#ef4444">What The Industry Provides</text>
    <text x="175" y="35" text-anchor="middle" font-size="12" fill="#94a3b8">Opacity and "call for a quote"</text>

    <rect x="0" y="58" width="350" height="38" rx="8" fill="#1e293b" opacity="0.8"/>
    <text x="15" y="82" font-size="13" fill="#e2e8f0">76% show zero pricing on their website</text>
    <rect x="0" y="58" width="266" height="38" rx="8" fill="#ef4444" opacity="0.15"/>

    <rect x="0" y="106" width="350" height="38" rx="8" fill="#1e293b" opacity="0.8"/>
    <text x="15" y="130" font-size="13" fill="#e2e8f0">41% of homeowners felt deceived</text>
    <rect x="0" y="106" width="143" height="38" rx="8" fill="#ef4444" opacity="0.15"/>

    <rect x="0" y="154" width="350" height="38" rx="8" fill="#1e293b" opacity="0.8"/>
    <text x="15" y="178" font-size="13" fill="#e2e8f0">81,925 FTC scam reports (2024)</text>
    <rect x="0" y="154" width="350" height="38" rx="8" fill="#ef4444" opacity="0.15"/>
  </g>

  <!-- Bottom stat -->
  <g transform="translate(30, 310)">
    <rect x="0" y="0" width="740" height="95" rx="12" fill="#1e293b" opacity="0.9" stroke="#f97316" stroke-width="1"/>
    <text x="370" y="28" text-anchor="middle" font-family="system-ui, -apple-system, sans-serif" font-size="15" font-weight="bold" fill="#f97316">The Result</text>
    <text x="370" y="52" text-anchor="middle" font-family="system-ui, -apple-system, sans-serif" font-size="13" fill="#94a3b8">63% of homeowners go into debt for renovations</text>
    <text x="370" y="70" text-anchor="middle" font-family="system-ui, -apple-system, sans-serif" font-size="13" fill="#94a3b8">36% can't pay their credit card bill after  •  50%+ have a negative experience</text>
  </g>
</svg>
