<svg xmlns="http://www.w3.org/2000/svg" viewBox="0 0 1200 630" width="1200" height="630">
  <defs>
    <linearGradient id="bgGrad" x1="0%" y1="0%" x2="100%" y2="100%">
      <stop offset="0%" style="stop-color:#0f172a;stop-opacity:1" />
      <stop offset="50%" style="stop-color:#1e1b4b;stop-opacity:1" />
      <stop offset="100%" style="stop-color:#0f172a;stop-opacity:1" />
    </linearGradient>
    <linearGradient id="orangeGrad" x1="0%" y1="0%" x2="100%" y2="100%">
      <stop offset="0%" style="stop-color:#f97316;stop-opacity:1" />
      <stop offset="100%" style="stop-color:#ea580c;stop-opacity:1" />
    </linearGradient>
    <linearGradient id="greenGrad" x1="0%" y1="0%" x2="100%" y2="0%">
      <stop offset="0%" style="stop-color:#22c55e;stop-opacity:0.8" />
      <stop offset="100%" style="stop-color:#16a34a;stop-opacity:0.8" />
    </linearGradient>
    <linearGradient id="redGrad" x1="0%" y1="0%" x2="100%" y2="0%">
      <stop offset="0%" style="stop-color:#ef4444;stop-opacity:0.8" />
      <stop offset="100%" style="stop-color:#dc2626;stop-opacity:0.8" />
    </linearGradient>
    <filter id="glow">
      <feGaussianBlur stdDeviation="3" result="coloredBlur"/>
      <feMerge>
        <feMergeNode in="coloredBlur"/>
        <feMergeNode in="SourceGraphic"/>
      </feMerge>
    </filter>
    <filter id="bigGlow">
      <feGaussianBlur stdDeviation="12" result="coloredBlur"/>
      <feMerge>
        <feMergeNode in="coloredBlur"/>
        <feMergeNode in="SourceGraphic"/>
      </feMerge>
    </filter>
    <filter id="shadow">
      <feDropShadow dx="0" dy="4" stdDeviation="8" flood-color="#000" flood-opacity="0.3"/>
    </filter>
  </defs>

  <!-- Background -->
  <rect width="1200" height="630" fill="url(#bgGrad)"/>

  <!-- Subtle grid -->
  <g opacity="0.03" stroke="#f97316" stroke-width="0.5">
    <line x1="0" y1="0" x2="0" y2="630"/><line x1="60" y1="0" x2="60" y2="630"/>
    <line x1="120" y1="0" x2="120" y2="630"/><line x1="180" y1="0" x2="180" y2="630"/>
    <line x1="240" y1="0" x2="240" y2="630"/><line x1="300" y1="0" x2="300" y2="630"/>
    <line x1="360" y1="0" x2="360" y2="630"/><line x1="420" y1="0" x2="420" y2="630"/>
    <line x1="480" y1="0" x2="480" y2="630"/><line x1="540" y1="0" x2="540" y2="630"/>
    <line x1="600" y1="0" x2="600" y2="630"/><line x1="660" y1="0" x2="660" y2="630"/>
    <line x1="720" y1="0" x2="720" y2="630"/><line x1="780" y1="0" x2="780" y2="630"/>
    <line x1="840" y1="0" x2="840" y2="630"/><line x1="900" y1="0" x2="900" y2="630"/>
    <line x1="960" y1="0" x2="960" y2="630"/><line x1="1020" y1="0" x2="1020" y2="630"/>
    <line x1="1080" y1="0" x2="1080" y2="630"/><line x1="1140" y1="0" x2="1140" y2="630"/>
    <line x1="0" y1="0" x2="1200" y2="0"/><line x1="0" y1="60" x2="1200" y2="60"/>
    <line x1="0" y1="120" x2="1200" y2="120"/><line x1="0" y1="180" x2="1200" y2="180"/>
    <line x1="0" y1="240" x2="1200" y2="240"/><line x1="0" y1="300" x2="1200" y2="300"/>
    <line x1="0" y1="360" x2="1200" y2="360"/><line x1="0" y1="420" x2="1200" y2="420"/>
    <line x1="0" y1="480" x2="1200" y2="480"/><line x1="0" y1="540" x2="1200" y2="540"/>
  </g>

  <!-- Three price cards floating -->
  <!-- Card 1: $8,000 -->
  <g transform="translate(140, 120)" filter="url(#shadow)">
    <rect x="0" y="0" width="180" height="100" rx="12" fill="#1e293b" stroke="#22c55e" stroke-width="1.5" opacity="0.9"/>
    <text x="90" y="35" text-anchor="middle" font-family="system-ui, -apple-system, sans-serif" font-size="13" fill="#94a3b8">Quote #1</text>
    <text x="90" y="70" text-anchor="middle" font-family="system-ui, -apple-system, sans-serif" font-size="28" font-weight="bold" fill="#22c55e">$8,000</text>
  </g>

  <!-- Card 2: $14,000 -->
  <g transform="translate(510, 100)" filter="url(#shadow)">
    <rect x="0" y="0" width="180" height="100" rx="12" fill="#1e293b" stroke="#f97316" stroke-width="1.5" opacity="0.9"/>
    <text x="90" y="35" text-anchor="middle" font-family="system-ui, -apple-system, sans-serif" font-size="13" fill="#94a3b8">Quote #2</text>
    <text x="90" y="70" text-anchor="middle" font-family="system-ui, -apple-system, sans-serif" font-size="28" font-weight="bold" fill="#f97316">$14,000</text>
  </g>

  <!-- Card 3: $22,000 -->
  <g transform="translate(880, 120)" filter="url(#shadow)">
    <rect x="0" y="0" width="180" height="100" rx="12" fill="#1e293b" stroke="#ef4444" stroke-width="1.5" opacity="0.9"/>
    <text x="90" y="35" text-anchor="middle" font-family="system-ui, -apple-system, sans-serif" font-size="13" fill="#94a3b8">Quote #3</text>
    <text x="90" y="70" text-anchor="middle" font-family="system-ui, -apple-system, sans-serif" font-size="28" font-weight="bold" fill="#ef4444">$22,000</text>
  </g>

  <!-- Connecting dotted lines between cards -->
  <line x1="320" y1="170" x2="510" y2="150" stroke="#475569" stroke-width="1" stroke-dasharray="4 6" opacity="0.5"/>
  <line x1="690" y1="150" x2="880" y2="170" stroke="#475569" stroke-width="1" stroke-dasharray="4 6" opacity="0.5"/>

  <!-- Question marks floating -->
  <text x="430" y="180" font-family="system-ui, -apple-system, sans-serif" font-size="24" fill="#f97316" opacity="0.3">?</text>
  <text x="800" y="160" font-family="system-ui, -apple-system, sans-serif" font-size="20" fill="#ef4444" opacity="0.25">?</text>
  <text x="600" y="130" font-family="system-ui, -apple-system, sans-serif" font-size="18" fill="#22c55e" opacity="0.2">?</text>

  <!-- Reddit-style upvote indicator -->
  <g transform="translate(60, 300)" opacity="0.2">
    <polygon points="15,0 30,18 0,18" fill="#f97316"/>
    <rect x="8" y="20" width="14" height="20" rx="2" fill="#f97316"/>
    <text x="15" y="58" text-anchor="middle" font-family="system-ui, -apple-system, sans-serif" font-size="11" fill="#f97316">114k</text>
  </g>

  <!-- Stats bar at bottom -->
  <g transform="translate(100, 380)">
    <!-- 70% over budget stat -->
    <rect x="0" y="0" width="280" height="50" rx="8" fill="#1e293b" opacity="0.7"/>
    <text x="20" y="32" font-family="system-ui, -apple-system, sans-serif" font-size="22" font-weight="bold" fill="#ef4444">70%</text>
    <text x="80" y="32" font-family="system-ui, -apple-system, sans-serif" font-size="14" fill="#94a3b8">go over budget</text>

    <!-- $524B market -->
    <rect x="310" y="0" width="280" height="50" rx="8" fill="#1e293b" opacity="0.7"/>
    <text x="330" y="32" font-family="system-ui, -apple-system, sans-serif" font-size="22" font-weight="bold" fill="#f97316">$524B</text>
    <text x="420" y="32" font-family="system-ui, -apple-system, sans-serif" font-size="14" fill="#94a3b8">spent on renos</text>

    <!-- 78% regret -->
    <rect x="620" y="0" width="280" height="50" rx="8" fill="#1e293b" opacity="0.7"/>
    <text x="640" y="32" font-family="system-ui, -apple-system, sans-serif" font-size="22" font-weight="bold" fill="#a78bfa">78%</text>
    <text x="700" y="32" font-family="system-ui, -apple-system, sans-serif" font-size="14" fill="#94a3b8">exceeded budget</text>
  </g>

  <!-- Bathroom icon hint -->
  <g transform="translate(1080, 280)" opacity="0.12">
    <rect x="0" y="0" width="50" height="60" rx="4" fill="none" stroke="#f97316" stroke-width="1.5"/>
    <ellipse cx="25" cy="45" rx="20" ry="10" fill="none" stroke="#f97316" stroke-width="1"/>
    <line x1="25" y1="0" x2="25" y2="15" stroke="#f97316" stroke-width="1.5"/>
    <circle cx="25" cy="18" r="3" fill="#f97316"/>
  </g>

  <!-- Title -->
  <text x="600" y="500" text-anchor="middle" font-family="system-ui, -apple-system, sans-serif" font-size="34" font-weight="bold" fill="#ffffff" filter="url(#glow)">Same Bathroom. Same City.</text>
  <text x="600" y="540" text-anchor="middle" font-family="system-ui, -apple-system, sans-serif" font-size="34" font-weight="bold" fill="#ffffff" filter="url(#glow)">Three Wildly Different Quotes.</text>
  <text x="600" y="578" text-anchor="middle" font-family="system-ui, -apple-system, sans-serif" font-size="18" fill="#f97316" opacity="0.8">How a Reddit post with 114k views became an app</text>

  <!-- NativeFirst badge -->
  <text x="600" y="610" text-anchor="middle" font-family="system-ui, -apple-system, sans-serif" font-size="12" fill="#6366f1" opacity="0.5">NativeFirst</text>

  <!-- Ambient particles -->
  <circle cx="200" cy="280" r="1.5" fill="#f97316" opacity="0.3"/>
  <circle cx="950" cy="300" r="1" fill="#22c55e" opacity="0.25"/>
  <circle cx="400" cy="60" r="1.5" fill="#a78bfa" opacity="0.2"/>
  <circle cx="1050" cy="80" r="1" fill="#f97316" opacity="0.3"/>
  <circle cx="750" cy="280" r="1.5" fill="#ef4444" opacity="0.2"/>
</svg>