<svg xmlns="http://www.w3.org/2000/svg" viewBox="0 0 900 520" width="900" height="520">
  <defs>
    <linearGradient id="bgG" x1="0%" y1="0%" x2="100%" y2="100%">
      <stop offset="0%" style="stop-color:#0f0a1a"/>
      <stop offset="100%" style="stop-color:#1a0e2e"/>
    </linearGradient>
    <linearGradient id="opus" x1="0%" y1="0%" x2="100%" y2="0%">
      <stop offset="0%" style="stop-color:#9333ea"/>
      <stop offset="100%" style="stop-color:#c084fc"/>
    </linearGradient>
    <linearGradient id="gpt" x1="0%" y1="0%" x2="100%" y2="0%">
      <stop offset="0%" style="stop-color:#06b6d4"/>
      <stop offset="100%" style="stop-color:#67e8f9"/>
    </linearGradient>
    <linearGradient id="gem" x1="0%" y1="0%" x2="100%" y2="0%">
      <stop offset="0%" style="stop-color:#3b82f6"/>
      <stop offset="100%" style="stop-color:#93c5fd"/>
    </linearGradient>
    <linearGradient id="ds" x1="0%" y1="0%" x2="100%" y2="0%">
      <stop offset="0%" style="stop-color:#f97316"/>
      <stop offset="100%" style="stop-color:#fdba74"/>
    </linearGradient>
    <linearGradient id="ll" x1="0%" y1="0%" x2="100%" y2="0%">
      <stop offset="0%" style="stop-color:#22c55e"/>
      <stop offset="100%" style="stop-color:#86efac"/>
    </linearGradient>
    <linearGradient id="ms" x1="0%" y1="0%" x2="100%" y2="0%">
      <stop offset="0%" style="stop-color:#eab308"/>
      <stop offset="100%" style="stop-color:#fde047"/>
    </linearGradient>
    <filter id="gl2">
      <feGaussianBlur stdDeviation="2" result="b"/>
      <feMerge><feMergeNode in="b"/><feMergeNode in="SourceGraphic"/></feMerge>
    </filter>
  </defs>

  <rect width="900" height="520" fill="url(#bgG)" rx="16"/>

  <!-- Title -->
  <text x="450" y="42" text-anchor="middle" fill="#e2e8f0" font-family="system-ui" font-size="20" font-weight="700">AI Model Comparison for iOS Vibe Coding</text>
  <text x="450" y="62" text-anchor="middle" fill="#64748b" font-family="system-ui" font-size="12">SwiftUI code generation quality scored across multiple dimensions (0-100)</text>

  <!-- Headers -->
  <text x="150" y="100" text-anchor="end" fill="#94a3b8" font-family="system-ui" font-size="12" font-weight="600">Model</text>
  <text x="350" y="100" text-anchor="middle" fill="#94a3b8" font-family="system-ui" font-size="11">Code Quality</text>
  <text x="500" y="100" text-anchor="middle" fill="#94a3b8" font-family="system-ui" font-size="11">SwiftUI Knowledge</text>
  <text x="650" y="100" text-anchor="middle" fill="#94a3b8" font-family="system-ui" font-size="11">Bug-Free Output</text>
  <text x="810" y="100" text-anchor="middle" fill="#94a3b8" font-family="system-ui" font-size="11">Overall</text>
  <line x1="30" y1="110" x2="870" y2="110" stroke="#2d2640" stroke-width="1"/>

  <!-- Row 1: Opus 4.6 -->
  <rect x="30" y="118" width="840" height="52" rx="8" fill="#9333ea" opacity="0.08"/>
  <circle cx="50" cy="144" r="14" fill="#9333ea" opacity="0.3"/>
  <text x="50" y="148" text-anchor="middle" fill="#c084fc" font-family="system-ui" font-size="11" font-weight="700">A</text>
  <text x="70" y="140" fill="#e2e8f0" font-family="system-ui" font-size="13" font-weight="700">Claude Opus 4.6</text>
  <text x="70" y="156" fill="#9333ea" font-family="system-ui" font-size="10">Anthropic</text>
  <!-- Bars -->
  <rect x="270" y="134" width="158" height="16" rx="4" fill="url(#opus)" filter="url(#gl2)"/>
  <text x="436" y="147" fill="#c084fc" font-family="monospace" font-size="12" font-weight="700">97</text>
  <rect x="430" y="134" width="150" height="16" rx="4" fill="url(#opus)" filter="url(#gl2)"/>
  <text x="588" y="147" fill="#c084fc" font-family="monospace" font-size="12" font-weight="700">96</text>
  <rect x="585" y="134" width="148" height="16" rx="4" fill="url(#opus)" filter="url(#gl2)"/>
  <text x="740" y="147" fill="#c084fc" font-family="monospace" font-size="12" font-weight="700">95</text>
  <rect x="760" y="126" width="60" height="32" rx="6" fill="#9333ea" opacity="0.3" stroke="#9333ea" stroke-width="1"/>
  <text x="790" y="148" text-anchor="middle" fill="#c084fc" font-family="monospace" font-size="16" font-weight="800">96</text>

  <!-- Row 2: GPT-4o -->
  <text x="70" y="198" fill="#e2e8f0" font-family="system-ui" font-size="13" font-weight="600">GPT-4o / o3</text>
  <text x="70" y="214" fill="#06b6d4" font-family="system-ui" font-size="10">OpenAI</text>
  <rect x="270" y="192" width="130" height="16" rx="4" fill="url(#gpt)"/>
  <text x="408" y="205" fill="#67e8f9" font-family="monospace" font-size="12">82</text>
  <rect x="430" y="192" width="120" height="16" rx="4" fill="url(#gpt)"/>
  <text x="558" y="205" fill="#67e8f9" font-family="monospace" font-size="12">78</text>
  <rect x="585" y="192" width="115" height="16" rx="4" fill="url(#gpt)"/>
  <text x="708" y="205" fill="#67e8f9" font-family="monospace" font-size="12">75</text>
  <text x="790" y="208" text-anchor="middle" fill="#67e8f9" font-family="monospace" font-size="15" font-weight="700">78</text>
  <line x1="30" y1="228" x2="870" y2="228" stroke="#2d2640" stroke-width="0.5"/>

  <!-- Row 3: Gemini 2.5 Pro -->
  <text x="70" y="256" fill="#e2e8f0" font-family="system-ui" font-size="13" font-weight="600">Gemini 2.5 Pro</text>
  <text x="70" y="272" fill="#3b82f6" font-family="system-ui" font-size="10">Google</text>
  <rect x="270" y="250" width="125" height="16" rx="4" fill="url(#gem)"/>
  <text x="403" y="263" fill="#93c5fd" font-family="monospace" font-size="12">80</text>
  <rect x="430" y="250" width="118" height="16" rx="4" fill="url(#gem)"/>
  <text x="556" y="263" fill="#93c5fd" font-family="monospace" font-size="12">76</text>
  <rect x="585" y="250" width="110" height="16" rx="4" fill="url(#gem)"/>
  <text x="703" y="263" fill="#93c5fd" font-family="monospace" font-size="12">72</text>
  <text x="790" y="266" text-anchor="middle" fill="#93c5fd" font-family="monospace" font-size="15" font-weight="700">76</text>
  <line x1="30" y1="286" x2="870" y2="286" stroke="#2d2640" stroke-width="0.5"/>

  <!-- Row 4: DeepSeek V3 -->
  <text x="70" y="314" fill="#e2e8f0" font-family="system-ui" font-size="13" font-weight="600">DeepSeek V3</text>
  <text x="70" y="330" fill="#f97316" font-family="system-ui" font-size="10">DeepSeek</text>
  <rect x="270" y="308" width="112" height="16" rx="4" fill="url(#ds)"/>
  <text x="390" y="321" fill="#fdba74" font-family="monospace" font-size="12">72</text>
  <rect x="430" y="308" width="100" height="16" rx="4" fill="url(#ds)"/>
  <text x="538" y="321" fill="#fdba74" font-family="monospace" font-size="12">65</text>
  <rect x="585" y="308" width="95" height="16" rx="4" fill="url(#ds)"/>
  <text x="688" y="321" fill="#fdba74" font-family="monospace" font-size="12">62</text>
  <text x="790" y="324" text-anchor="middle" fill="#fdba74" font-family="monospace" font-size="15" font-weight="700">66</text>
  <line x1="30" y1="344" x2="870" y2="344" stroke="#2d2640" stroke-width="0.5"/>

  <!-- Row 5: Llama 4 -->
  <text x="70" y="372" fill="#e2e8f0" font-family="system-ui" font-size="13" font-weight="600">Llama 4 Maverick</text>
  <text x="70" y="388" fill="#22c55e" font-family="system-ui" font-size="10">Meta</text>
  <rect x="270" y="366" width="98" height="16" rx="4" fill="url(#ll)"/>
  <text x="376" y="379" fill="#86efac" font-family="monospace" font-size="12">64</text>
  <rect x="430" y="366" width="85" height="16" rx="4" fill="url(#ll)"/>
  <text x="523" y="379" fill="#86efac" font-family="monospace" font-size="12">55</text>
  <rect x="585" y="366" width="82" height="16" rx="4" fill="url(#ll)"/>
  <text x="675" y="379" fill="#86efac" font-family="monospace" font-size="12">53</text>
  <text x="790" y="382" text-anchor="middle" fill="#86efac" font-family="monospace" font-size="15" font-weight="700">57</text>
  <line x1="30" y1="402" x2="870" y2="402" stroke="#2d2640" stroke-width="0.5"/>

  <!-- Row 6: Mistral Large -->
  <text x="70" y="430" fill="#e2e8f0" font-family="system-ui" font-size="13" font-weight="600">Mistral Large 2</text>
  <text x="70" y="446" fill="#eab308" font-family="system-ui" font-size="10">Mistral AI</text>
  <rect x="270" y="424" width="105" height="16" rx="4" fill="url(#ms)"/>
  <text x="383" y="437" fill="#fde047" font-family="monospace" font-size="12">68</text>
  <rect x="430" y="424" width="92" height="16" rx="4" fill="url(#ms)"/>
  <text x="530" y="437" fill="#fde047" font-family="monospace" font-size="12">60</text>
  <rect x="585" y="424" width="88" height="16" rx="4" fill="url(#ms)"/>
  <text x="681" y="437" fill="#fde047" font-family="monospace" font-size="12">57</text>
  <text x="790" y="440" text-anchor="middle" fill="#fde047" font-family="monospace" font-size="15" font-weight="700">62</text>

  <!-- Footer note -->
  <line x1="30" y1="470" x2="870" y2="470" stroke="#2d2640" stroke-width="1"/>
  <text x="450" y="495" text-anchor="middle" fill="#4b5563" font-family="system-ui" font-size="11">Scores based on real-world iOS project generation tasks including SwiftUI views, CoreData models, and async networking code.</text>
  <text x="450" y="512" text-anchor="middle" fill="#4b5563" font-family="system-ui" font-size="11">Tested: January - February 2026 | nativefirst.dev</text>
</svg>