<svg xmlns="http://www.w3.org/2000/svg" viewBox="0 0 1200 630" width="1200" height="630">
  <defs>
    <linearGradient id="bgGrad" x1="0%" y1="0%" x2="100%" y2="100%">
      <stop offset="0%" style="stop-color:#0f0a1a;stop-opacity:1" />
      <stop offset="50%" style="stop-color:#1a0533;stop-opacity:1" />
      <stop offset="100%" style="stop-color:#0a1628;stop-opacity:1" />
    </linearGradient>
    <linearGradient id="purpleGlow" x1="0%" y1="0%" x2="100%" y2="100%">
      <stop offset="0%" style="stop-color:#9333ea;stop-opacity:0.8" />
      <stop offset="100%" style="stop-color:#06b6d4;stop-opacity:0.8" />
    </linearGradient>
    <linearGradient id="codeGrad" x1="0%" y1="0%" x2="0%" y2="100%">
      <stop offset="0%" style="stop-color:#9333ea;stop-opacity:0.3" />
      <stop offset="100%" style="stop-color:#06b6d4;stop-opacity:0.1" />
    </linearGradient>
    <filter id="glow">
      <feGaussianBlur stdDeviation="3" result="coloredBlur"/>
      <feMerge>
        <feMergeNode in="coloredBlur"/>
        <feMergeNode in="SourceGraphic"/>
      </feMerge>
    </filter>
    <filter id="bigGlow">
      <feGaussianBlur stdDeviation="20" result="coloredBlur"/>
      <feMerge>
        <feMergeNode in="coloredBlur"/>
        <feMergeNode in="SourceGraphic"/>
      </feMerge>
    </filter>
  </defs>

  <!-- Background -->
  <rect width="1200" height="630" fill="url(#bgGrad)"/>

  <!-- Grid pattern -->
  <g opacity="0.05" stroke="#9333ea" stroke-width="0.5">
    <line x1="0" y1="0" x2="0" y2="630"/><line x1="40" y1="0" x2="40" y2="630"/>
    <line x1="80" y1="0" x2="80" y2="630"/><line x1="120" y1="0" x2="120" y2="630"/>
    <line x1="160" y1="0" x2="160" y2="630"/><line x1="200" y1="0" x2="200" y2="630"/>
    <line x1="240" y1="0" x2="240" y2="630"/><line x1="280" y1="0" x2="280" y2="630"/>
    <line x1="320" y1="0" x2="320" y2="630"/><line x1="360" y1="0" x2="360" y2="630"/>
    <line x1="400" y1="0" x2="400" y2="630"/><line x1="440" y1="0" x2="440" y2="630"/>
    <line x1="480" y1="0" x2="480" y2="630"/><line x1="520" y1="0" x2="520" y2="630"/>
    <line x1="560" y1="0" x2="560" y2="630"/><line x1="600" y1="0" x2="600" y2="630"/>
    <line x1="640" y1="0" x2="640" y2="630"/><line x1="680" y1="0" x2="680" y2="630"/>
    <line x1="720" y1="0" x2="720" y2="630"/><line x1="760" y1="0" x2="760" y2="630"/>
    <line x1="800" y1="0" x2="800" y2="630"/><line x1="840" y1="0" x2="840" y2="630"/>
    <line x1="880" y1="0" x2="880" y2="630"/><line x1="920" y1="0" x2="920" y2="630"/>
    <line x1="960" y1="0" x2="960" y2="630"/><line x1="1000" y1="0" x2="1000" y2="630"/>
    <line x1="1040" y1="0" x2="1040" y2="630"/><line x1="1080" y1="0" x2="1080" y2="630"/>
    <line x1="1120" y1="0" x2="1120" y2="630"/><line x1="1160" y1="0" x2="1160" y2="630"/>
    <line x1="0" y1="0" x2="1200" y2="0"/><line x1="0" y1="40" x2="1200" y2="40"/>
    <line x1="0" y1="80" x2="1200" y2="80"/><line x1="0" y1="120" x2="1200" y2="120"/>
    <line x1="0" y1="160" x2="1200" y2="160"/><line x1="0" y1="200" x2="1200" y2="200"/>
    <line x1="0" y1="240" x2="1200" y2="240"/><line x1="0" y1="280" x2="1200" y2="280"/>
    <line x1="0" y1="320" x2="1200" y2="320"/><line x1="0" y1="360" x2="1200" y2="360"/>
    <line x1="0" y1="400" x2="1200" y2="400"/><line x1="0" y1="440" x2="1200" y2="440"/>
    <line x1="0" y1="480" x2="1200" y2="480"/><line x1="0" y1="520" x2="1200" y2="520"/>
    <line x1="0" y1="560" x2="1200" y2="560"/><line x1="0" y1="600" x2="1200" y2="600"/>
  </g>

  <!-- Floating orbs -->
  <circle cx="200" cy="150" r="120" fill="#9333ea" opacity="0.08" filter="url(#bigGlow)"/>
  <circle cx="1000" cy="480" r="150" fill="#06b6d4" opacity="0.06" filter="url(#bigGlow)"/>
  <circle cx="600" cy="300" r="200" fill="#7c3aed" opacity="0.04" filter="url(#bigGlow)"/>

  <!-- Code editor mockup on the right -->
  <g transform="translate(720, 80)">
    <rect x="0" y="0" width="420" height="280" rx="12" fill="#1e1b2e" stroke="#9333ea" stroke-width="1" opacity="0.7"/>
    <!-- Title bar -->
    <rect x="0" y="0" width="420" height="32" rx="12" fill="#2a2440"/>
    <rect x="0" y="20" width="420" height="12" fill="#2a2440"/>
    <circle cx="18" cy="16" r="5" fill="#ff5f57"/>
    <circle cx="36" cy="16" r="5" fill="#febc2e"/>
    <circle cx="54" cy="16" r="5" fill="#28c840"/>
    <text x="210" y="20" text-anchor="middle" fill="#8b8598" font-family="monospace" font-size="11">ContentView.swift</text>

    <!-- Code lines -->
    <text x="16" y="58" fill="#c084fc" font-family="monospace" font-size="12" filter="url(#glow)">import</text>
    <text x="70" y="58" fill="#67e8f9" font-family="monospace" font-size="12"> SwiftUI</text>

    <text x="16" y="82" fill="#c084fc" font-family="monospace" font-size="12" filter="url(#glow)">struct</text>
    <text x="70" y="82" fill="#f0abfc" font-family="monospace" font-size="12"> ContentView</text>
    <text x="190" y="82" fill="#8b8598" font-family="monospace" font-size="12">:</text>
    <text x="200" y="82" fill="#67e8f9" font-family="monospace" font-size="12"> View</text>
    <text x="238" y="82" fill="#8b8598" font-family="monospace" font-size="12"> {</text>

    <text x="32" y="106" fill="#c084fc" font-family="monospace" font-size="12" filter="url(#glow)">var</text>
    <text x="60" y="106" fill="#e2e8f0" font-family="monospace" font-size="12"> body</text>
    <text x="100" y="106" fill="#8b8598" font-family="monospace" font-size="12">:</text>
    <text x="110" y="106" fill="#67e8f9" font-family="monospace" font-size="12"> some View</text>
    <text x="200" y="106" fill="#8b8598" font-family="monospace" font-size="12"> {</text>

    <text x="48" y="130" fill="#67e8f9" font-family="monospace" font-size="12">NavigationStack</text>
    <text x="178" y="130" fill="#8b8598" font-family="monospace" font-size="12"> {</text>

    <text x="64" y="154" fill="#67e8f9" font-family="monospace" font-size="12">VStack</text>
    <text x="110" y="154" fill="#8b8598" font-family="monospace" font-size="12">(spacing:</text>
    <text x="180" y="154" fill="#fbbf24" font-family="monospace" font-size="12">16</text>
    <text x="196" y="154" fill="#8b8598" font-family="monospace" font-size="12">) {</text>

    <text x="80" y="178" fill="#67e8f9" font-family="monospace" font-size="12">Text</text>
    <text x="108" y="178" fill="#8b8598" font-family="monospace" font-size="12">(</text>
    <text x="116" y="178" fill="#86efac" font-family="monospace" font-size="12">"Vibe Coding"</text>
    <text x="228" y="178" fill="#8b8598" font-family="monospace" font-size="12">)</text>

    <text x="96" y="202" fill="#8b8598" font-family="monospace" font-size="12">.</text>
    <text x="102" y="202" fill="#67e8f9" font-family="monospace" font-size="12">font</text>
    <text x="130" y="202" fill="#8b8598" font-family="monospace" font-size="12">(.</text>
    <text x="142" y="202" fill="#e2e8f0" font-family="monospace" font-size="12">largeTitle</text>
    <text x="218" y="202" fill="#8b8598" font-family="monospace" font-size="12">)</text>

    <text x="96" y="226" fill="#8b8598" font-family="monospace" font-size="12">.</text>
    <text x="102" y="226" fill="#67e8f9" font-family="monospace" font-size="12">bold</text>
    <text x="134" y="226" fill="#8b8598" font-family="monospace" font-size="12">()</text>

    <!-- AI suggestion indicator -->
    <rect x="80" y="238" width="320" height="24" rx="4" fill="#9333ea" opacity="0.15"/>
    <text x="90" y="254" fill="#c084fc" font-family="monospace" font-size="11">// AI: Generated with Claude Opus 4.6</text>
    <text x="392" y="254" fill="#c084fc" font-family="monospace" font-size="10">Tab</text>
  </g>

  <!-- AI brain/chip icon -->
  <g transform="translate(100, 130)">
    <!-- Chip body -->
    <rect x="0" y="0" width="80" height="80" rx="8" fill="none" stroke="url(#purpleGlow)" stroke-width="2" filter="url(#glow)"/>
    <!-- Inner circuit -->
    <circle cx="40" cy="40" r="20" fill="none" stroke="#c084fc" stroke-width="1.5" opacity="0.6"/>
    <circle cx="40" cy="40" r="8" fill="#9333ea" opacity="0.8" filter="url(#glow)"/>
    <!-- Pins -->
    <line x1="20" y1="0" x2="20" y2="-15" stroke="#06b6d4" stroke-width="2" opacity="0.6"/>
    <line x1="40" y1="0" x2="40" y2="-15" stroke="#06b6d4" stroke-width="2" opacity="0.6"/>
    <line x1="60" y1="0" x2="60" y2="-15" stroke="#06b6d4" stroke-width="2" opacity="0.6"/>
    <line x1="20" y1="80" x2="20" y2="95" stroke="#06b6d4" stroke-width="2" opacity="0.6"/>
    <line x1="40" y1="80" x2="40" y2="95" stroke="#06b6d4" stroke-width="2" opacity="0.6"/>
    <line x1="60" y1="80" x2="60" y2="95" stroke="#06b6d4" stroke-width="2" opacity="0.6"/>
    <line x1="0" y1="20" x2="-15" y2="20" stroke="#06b6d4" stroke-width="2" opacity="0.6"/>
    <line x1="0" y1="40" x2="-15" y2="40" stroke="#06b6d4" stroke-width="2" opacity="0.6"/>
    <line x1="0" y1="60" x2="-15" y2="60" stroke="#06b6d4" stroke-width="2" opacity="0.6"/>
    <line x1="80" y1="20" x2="95" y2="20" stroke="#06b6d4" stroke-width="2" opacity="0.6"/>
    <line x1="80" y1="40" x2="95" y2="40" stroke="#06b6d4" stroke-width="2" opacity="0.6"/>
    <line x1="80" y1="60" x2="95" y2="60" stroke="#06b6d4" stroke-width="2" opacity="0.6"/>
  </g>

  <!-- Swift logo area -->
  <g transform="translate(100, 380)">
    <rect x="0" y="0" width="60" height="60" rx="12" fill="#f05138" opacity="0.2"/>
    <text x="30" y="42" text-anchor="middle" fill="#f05138" font-family="system-ui" font-size="32" font-weight="bold">S</text>
  </g>

  <!-- Apple logo area -->
  <g transform="translate(180, 380)">
    <rect x="0" y="0" width="60" height="60" rx="12" fill="#ffffff" opacity="0.1"/>
    <text x="30" y="44" text-anchor="middle" fill="#e2e8f0" font-family="system-ui" font-size="34"></text>
  </g>

  <!-- Main title -->
  <text x="80" y="310" fill="#ffffff" font-family="system-ui, -apple-system, sans-serif" font-size="48" font-weight="800" letter-spacing="-1">
    Vibe Coding
  </text>
  <text x="80" y="365" fill="url(#purpleGlow)" font-family="system-ui, -apple-system, sans-serif" font-size="36" font-weight="700" filter="url(#glow)">
    in iOS Development
  </text>

  <!-- Subtitle -->
  <text x="80" y="480" fill="#a5b4c8" font-family="system-ui, -apple-system, sans-serif" font-size="16" font-weight="400">
    A comprehensive analysis of AI models, tools, and workflows
  </text>
  <text x="80" y="505" fill="#a5b4c8" font-family="system-ui, -apple-system, sans-serif" font-size="16" font-weight="400">
    for building native iOS apps with artificial intelligence.
  </text>

  <!-- Model badges -->
  <g transform="translate(80, 530)">
    <rect x="0" y="0" width="90" height="28" rx="14" fill="#9333ea" opacity="0.3" stroke="#9333ea" stroke-width="1"/>
    <text x="45" y="18" text-anchor="middle" fill="#c084fc" font-family="system-ui" font-size="11" font-weight="600">Opus 4.6</text>

    <rect x="100" y="0" width="76" height="28" rx="14" fill="#06b6d4" opacity="0.2" stroke="#06b6d4" stroke-width="1"/>
    <text x="138" y="18" text-anchor="middle" fill="#67e8f9" font-family="system-ui" font-size="11" font-weight="600">GPT-4o</text>

    <rect x="186" y="0" width="76" height="28" rx="14" fill="#3b82f6" opacity="0.2" stroke="#3b82f6" stroke-width="1"/>
    <text x="224" y="18" text-anchor="middle" fill="#93c5fd" font-family="system-ui" font-size="11" font-weight="600">Gemini</text>

    <rect x="272" y="0" width="86" height="28" rx="14" fill="#f97316" opacity="0.2" stroke="#f97316" stroke-width="1"/>
    <text x="315" y="18" text-anchor="middle" fill="#fdba74" font-family="system-ui" font-size="11" font-weight="600">DeepSeek</text>

    <rect x="368" y="0" width="72" height="28" rx="14" fill="#22c55e" opacity="0.2" stroke="#22c55e" stroke-width="1"/>
    <text x="404" y="18" text-anchor="middle" fill="#86efac" font-family="system-ui" font-size="11" font-weight="600">Llama</text>

    <rect x="450" y="0" width="80" height="28" rx="14" fill="#eab308" opacity="0.2" stroke="#eab308" stroke-width="1"/>
    <text x="490" y="18" text-anchor="middle" fill="#fde047" font-family="system-ui" font-size="11" font-weight="600">Mistral</text>
  </g>

  <!-- NativeFirst badge -->
  <text x="1120" y="610" text-anchor="end" fill="#4b5563" font-family="system-ui" font-size="12">nativefirst.dev</text>
</svg>