<svg width="512" height="512" viewBox="0 0 512 512" fill="none" xmlns="http://www.w3.org/2000/svg">
  <defs>
    <linearGradient id="bg" x1="0" y1="0" x2="512" y2="512" gradientUnits="userSpaceOnUse">
      <stop stop-color="#4338ca"/>
      <stop offset="0.5" stop-color="#6d28d9"/>
      <stop offset="1" stop-color="#9333ea"/>
    </linearGradient>
    <linearGradient id="docGrad" x1="160" y1="80" x2="360" y2="440" gradientUnits="userSpaceOnUse">
      <stop stop-color="rgba(255,255,255,0.95)"/>
      <stop offset="1" stop-color="rgba(255,255,255,0.8)"/>
    </linearGradient>
  </defs>
  <!-- Background -->
  <rect width="512" height="512" rx="112" fill="url(#bg)"/>
  <!-- Document shape -->
  <rect x="148" y="80" width="216" height="290" rx="20" fill="url(#docGrad)"/>
  <!-- Document fold -->
  <path d="M310 80 L364 134 L310 134 Z" fill="rgba(99,102,241,0.2)"/>
  <!-- Text lines on document -->
  <rect x="184" y="160" width="144" height="12" rx="6" fill="rgba(99,102,241,0.35)"/>
  <rect x="184" y="188" width="120" height="12" rx="6" fill="rgba(99,102,241,0.25)"/>
  <rect x="184" y="216" width="144" height="12" rx="6" fill="rgba(99,102,241,0.35)"/>
  <rect x="184" y="244" width="100" height="12" rx="6" fill="rgba(99,102,241,0.25)"/>
  <rect x="184" y="272" width="130" height="12" rx="6" fill="rgba(99,102,241,0.2)"/>
  <!-- AI target/crosshair circle -->
  <circle cx="330" cy="350" r="82" fill="rgba(6,182,212,0.9)" stroke="white" stroke-width="6"/>
  <circle cx="330" cy="350" r="52" fill="none" stroke="white" stroke-width="4" stroke-dasharray="8 6"/>
  <circle cx="330" cy="350" r="22" fill="white"/>
  <!-- Crosshair lines -->
  <line x1="330" y1="290" x2="330" y2="310" stroke="white" stroke-width="4" stroke-linecap="round"/>
  <line x1="330" y1="390" x2="330" y2="410" stroke="white" stroke-width="4" stroke-linecap="round"/>
  <line x1="270" y1="350" x2="290" y2="350" stroke="white" stroke-width="4" stroke-linecap="round"/>
  <line x1="370" y1="350" x2="390" y2="350" stroke="white" stroke-width="4" stroke-linecap="round"/>
  <!-- Sparkle/AI stars -->
  <path d="M130 140 L135 130 L140 140 L135 150 Z" fill="rgba(255,255,255,0.6)"/>
  <path d="M400 120 L404 112 L408 120 L404 128 Z" fill="rgba(255,255,255,0.5)"/>
  <path d="M120 320 L123 314 L126 320 L123 326 Z" fill="rgba(255,255,255,0.4)"/>
</svg>
